<?xml version="1.0" encoding="UTF-8" standalone="no"?>
<svg
   xmlns:dc="http://purl.org/dc/elements/1.1/"
   xmlns:cc="http://creativecommons.org/ns#"
   xmlns:rdf="http://www.w3.org/1999/02/22-rdf-syntax-ns#"
   xmlns:svg="http://www.w3.org/2000/svg"
   xmlns="http://www.w3.org/2000/svg"
   id="SVGRoot"
   version="1.1"
   viewBox="0 0 400 600"
   height="600px"
   width="400px">
  <defs
     id="defs5368" />
  <metadata
     id="metadata5371">
    <rdf:RDF>
      <cc:Work
         rdf:about="">
        <dc:format>image/svg+xml</dc:format>
        <dc:type
           rdf:resource="http://purl.org/dc/dcmitype/StillImage" />
        <dc:title></dc:title>
      </cc:Work>
    </rdf:RDF>
  </metadata>
  <g
     id="layer1">
    <path
       id="rect815"
       d="M 75,150 V 440 H 325 V 150 Z m 13.628905,10 h 32.742185 c 2.01023,0 3.62891,1.61867 3.62891,3.6289 v 22.74219 C 125,188.38132 123.38132,190 121.37109,190 H 88.628905 C 86.61868,190 85,188.38132 85,186.37109 V 163.6289 C 85,161.61867 86.61868,160 88.628905,160 Z m 189.999995,0 h 32.74219 c 2.01024,0 3.62891,1.61867 3.62891,3.6289 v 22.74219 C 315,188.38132 313.38133,190 311.37109,190 H 278.6289 C 276.61869,190 275,188.38132 275,186.37109 V 163.6289 C 275,161.61867 276.61869,160 278.6289,160 Z M 88.628905,200 h 32.742185 c 2.01023,0 3.62891,1.61868 3.62891,3.6289 v 22.74317 C 125,228.38229 123.38132,230 121.37109,230 H 88.628905 C 86.61868,230 85,228.38229 85,226.37207 V 203.6289 C 85,201.61868 86.61868,200 88.628905,200 Z m 189.999995,0 h 32.74219 c 2.01024,0 3.62891,1.61868 3.62891,3.6289 v 22.74317 C 315,228.38229 313.38133,230 311.37109,230 H 278.6289 C 276.61869,230 275,228.38229 275,226.37207 V 203.6289 C 275,201.61868 276.61869,200 278.6289,200 Z M 88.628905,240 h 32.742185 c 2.01023,0 3.62891,1.61869 3.62891,3.6289 v 22.74219 C 125,268.38133 123.38132,270 121.37109,270 H 88.628905 C 86.61868,270 85,268.38133 85,266.37109 V 243.62891 C 85,241.61869 86.61868,240 88.628905,240 Z m 189.999995,0 h 32.74219 c 2.01024,0 3.62891,1.61869 3.62891,3.6289 v 22.74219 C 315,268.38133 313.38133,270 311.37109,270 H 278.6289 C 276.61869,270 275,268.38133 275,266.37109 V 243.62891 C 275,241.61869 276.61869,240 278.6289,240 Z M 88.628905,280 h 32.742185 c 2.01023,0 3.62891,1.61869 3.62891,3.62891 v 22.74218 C 125,308.38133 123.38132,310 121.37109,310 H 88.628905 C 86.61868,310 85,308.38133 85,306.37109 V 283.62891 C 85,281.61869 86.61868,280 88.628905,280 Z m 189.999995,0 h 32.74219 c 2.01024,0 3.62891,1.61869 3.62891,3.62891 v 22.74218 C 315,308.38133 313.38133,310 311.37109,310 H 278.6289 C 276.61869,310 275,308.38133 275,306.37109 V 283.62891 C 275,281.61869 276.61869,280 278.6289,280 Z M 88.628905,320 h 32.742185 c 2.01023,0 3.62891,1.61867 3.62891,3.62891 v 22.74218 C 125,348.38131 123.38132,350 121.37109,350 H 88.628905 C 86.61868,350 85,348.38131 85,346.37109 V 323.62891 C 85,321.61867 86.61868,320 88.628905,320 Z m 189.999995,0 h 32.74219 c 2.01024,0 3.62891,1.61867 3.62891,3.62891 v 22.74218 C 315,348.38131 313.38133,350 311.37109,350 H 278.6289 C 276.61869,350 275,348.38131 275,346.37109 V 323.62891 C 275,321.61867 276.61869,320 278.6289,320 Z M 88.628905,360 h 32.742185 c 2.01023,0 3.62891,1.61869 3.62891,3.62891 v 22.74218 C 125,388.38133 123.38132,390 121.37109,390 H 88.628905 C 86.61868,390 85,388.38133 85,386.37109 V 363.62891 C 85,361.61869 86.61868,360 88.628905,360 Z m 189.999995,0 h 32.74219 c 2.01024,0 3.62891,1.61869 3.62891,3.62891 v 22.74218 C 315,388.38133 313.38133,390 311.37109,390 H 278.6289 C 276.61869,390 275,388.38133 275,386.37109 V 363.62891 C 275,361.61869 276.61869,360 278.6289,360 Z M 88.628905,400 h 32.742185 c 2.01023,0 3.62891,1.61867 3.62891,3.62891 v 22.74218 C 125,428.38135 123.38132,430 121.37109,430 H 88.628905 C 86.61868,430 85,428.38135 85,426.37109 V 403.62891 C 85,401.61867 86.61868,400 88.628905,400 Z m 189.999995,0 h 32.74219 c 2.01024,0 3.62891,1.61867 3.62891,3.62891 v 22.74218 C 315,428.38135 313.38133,430 311.37109,430 H 278.6289 C 276.61869,430 275,428.38135 275,426.37109 V 403.62891 C 275,401.61867 276.61869,400 278.6289,400 Z"
       style="opacity:1;fill:#dedad1;fill-opacity:1;stroke:none;stroke-width:1.28856015;stroke-miterlimit:4;stroke-dasharray:none;stroke-dashoffset:0;stroke-opacity:1" />
  </g>
</svg>
